# xmcd
#
# Track frame offsets: 
#        150
#        23298
#        50630
#        71631
#        107651
#        142384
#        161946
#        180778
#        212576
#        240626
#
# Disc length: 3485 seconds
#
# Revision: 0
# Processed by: cddbd v1.5.2PL0 Copyright (c) Steve Scherf et al.
# Submitted via: ExactAudioCopy v0.99pb5
#
DISCID=880d9b0a
DTITLE=Eric Clapton  - E.C. Is Here - Disc 05 (DJ Copy 67)
DYEAR=1900
DGENRE=
TTITLE0=Smile
TTITLE1=Let It Grow
TTITLE2=Can't Find My Way Home
TTITLE3=I Shot The Sheriff
TTITLE4=Tell The Truth
TTITLE5=Ramblin' On My Mind
TTITLE6=Have You Ever Loved A Woman
TTITLE7=Willie And The Hand Jive
TTITLE8=Get Ready
TTITLE9=Opposites
EXTD=
EXTT0=
EXTT1=
EXTT2=
EXTT3=
EXTT4=
EXTT5=
EXTT6=
EXTT7=
EXTT8=
EXTT9=
PLAYORDER=
